<?xml version="1.0" encoding="UTF-8"?>
<svg width="459px" height="151px" viewBox="0 0 459 151" version="1.1" xmlns="http://www.w3.org/2000/svg" xmlns:xlink="http://www.w3.org/1999/xlink">
    <!-- Generator: Sketch 57.1 (83088) - https://sketch.com -->
    <title>Artboard Copy 3</title>
    <desc>Created with Sketch.</desc>
    <defs>
        <linearGradient x1="50%" y1="0%" x2="50%" y2="100%" id="linearGradient-1">
            <stop stop-color="#ECF0EF" offset="0%"></stop>
            <stop stop-color="#D4DDDA" offset="100%"></stop>
        </linearGradient>
        <linearGradient x1="50%" y1="0%" x2="50%" y2="63.2372178%" id="linearGradient-2">
            <stop stop-color="#ECF0EF" stop-opacity="0.763767483" offset="0%"></stop>
            <stop stop-color="#D4DDDA" stop-opacity="0" offset="100%"></stop>
        </linearGradient>
    </defs>
    <g id="Artboard-Copy-3" stroke="none" stroke-width="1" fill="none" fill-rule="evenodd">
        <path d="M52.6659178,71.0164073 C57.2855903,70.697877 61.3579182,75.0555973 61.7617169,80.7496513 C61.8554727,82.071723 62.1127784,84.0874323 62.3948076,86.40739 C63.1904229,84.2327777 63.8922767,82.3473796 64.2819011,81.0907493 C65.9743506,75.6322016 70.9364437,72.2894676 75.3650616,73.6244936 C79.7936487,74.9596205 82.0117388,80.466941 80.3193867,85.9255185 C78.8846987,90.5524329 68.0580576,102.148473 62.095261,104.761271 C61.7914661,105.096182 61.4241009,105.292569 60.983416,105.322955 C60.7924525,105.336122 60.5907104,105.317912 60.3793786,105.270494 C60.0276126,105.309311 59.7107966,105.290251 59.4342754,105.20689 C58.9448901,105.059355 58.602194,104.71659 58.382027,104.216178 C53.1691588,100.24052 45.3723096,86.6962676 45.0323973,81.9031641 C44.6286049,76.2091096 48.0462457,71.3349442 52.6659178,71.0164073 Z" id="small-heart" fill="#CB6767" transform="translate(62.943632, 88.163560) scale(-1, 1) rotate(-20.000000) translate(-62.943632, -88.163560) "></path>
        <path d="M106.641108,36.7951305 C109.375032,36.7951305 110.546714,38.3524848 110.546714,41.3374141 C110.546714,43.8032252 109.635406,47.5668316 108.203351,51.7197767 C111.327835,50.9410995 114.84288,49.124186 118.748486,46.2690363 C120.961663,44.7116819 122.263531,44.4521229 123.95596,46.1392568 C125.778576,47.9561702 127.731379,51.3304381 127.731379,54.4451468 C127.731379,56.0025012 127.080445,57.8194147 125.648389,59.5065486 C118.618299,67.5528796 111.197648,77.8054626 111.197648,85.462455 C111.197648,88.8367228 112.239143,90.9131953 114.061759,90.9131953 C118.488112,90.9131953 123.695587,83.6455415 127.731379,74.6907538 C128.772874,72.3547223 130.59549,72.2249427 131.767172,74.5609743 C132.67848,76.3778878 132.808667,79.4925965 131.376611,82.9966439 C128.252127,90.3940772 120.571102,95.9745971 113.150451,95.9745971 C105.209053,95.9745971 100.912887,90.3940772 100.912887,83.3859825 C100.912887,75.0800924 107.81279,65.0870685 114.322133,57.170517 C110.937275,58.5980919 107.682603,59.11721 104.818492,59.2469895 C95.0544782,76.1183287 87.6338274,88.0580456 85.8112114,97.0128334 C85.290464,99.3488649 83.5980348,100.516881 81.2546714,98.0510696 C79.0414949,95.9745971 78,93.2492269 78,90.3940772 C78,87.5389275 78.911308,84.4242187 80.733924,81.0499509 C82.9471005,76.8970059 89.5866302,66.2550842 96.7469073,57.4300761 C95.184665,56.0025012 94.2733571,54.3153673 94.2733571,52.6282334 C94.2733571,46.0094772 102.605316,36.7951305 106.641108,36.7951305 Z M160.538467,49.2539655 C158.585664,47.6966112 148.951837,55.6131626 142.702868,68.0719977 C143.744362,68.7208954 144.65567,68.9804544 145.566978,68.9804544 C148.691463,68.9804544 152.857442,65.0870685 155.46118,61.5830211 C159.236598,56.5216193 161.970522,50.4219813 160.538467,49.2539655 Z M170.302481,54.4451468 C170.302481,62.2319188 161.579962,75.8587696 150.123518,75.8587696 C146.999034,75.8587696 143.874549,74.9503129 140.880252,73.0036199 C140.099131,75.5992106 139.70857,78.3245807 139.70857,80.6606123 C139.70857,86.3709117 142.051933,90.3940772 145.957539,90.3940772 C155.85174,90.3940772 164.57426,80.7903918 169.911921,72.7440609 C171.343976,70.6675883 173.036405,70.4080293 174.0779,73.0036199 C174.468461,74.1716357 174.598647,77.9352421 172.255284,81.4392895 C166.787436,89.355841 156.372488,95.455479 146.217913,95.5852585 C134.110535,95.715038 127.471005,87.7984866 127.471005,77.416124 C127.471005,72.7440609 128.772874,67.6826591 131.506798,62.4914778 C138.276515,48.7348474 148.82165,41.8565322 156.372488,41.8565322 C158.195104,41.8565322 159.627159,42.1160913 160.929028,42.8947685 C164.57426,44.971241 167.177997,47.0477135 169.000613,49.6433041 C169.781734,50.8113199 170.302481,52.7580129 170.302481,54.4451468 Z M205.452932,33.5506422 C199.985084,43.1543275 191.262565,57.0407375 185.013596,69.2400135 C191.262565,71.4462655 192.043686,78.9734784 191.392752,85.9815731 C195.428544,82.7370848 198.94359,77.6756831 201.677514,71.9653837 C203.109569,69.110234 205.713306,68.8506749 206.884988,72.2249427 C207.666109,74.4311948 206.884988,77.2863445 205.713306,80.2712737 C204.411438,83.3859825 198.162468,90.6536363 190.481444,93.6385655 C188.528641,106.486739 182.800419,121.281606 176.55145,129.198157 C173.947713,132.442646 171.343976,134 167.959118,134 C163.012017,134 156.893235,126.213228 156.893235,116.220204 C156.893235,89.7451796 189.439949,36.0164533 204.281251,13.6943738 C205.062372,12.526358 206.103867,11.8774603 207.015175,11.8774603 C208.577417,11.8774603 210.790594,14.2134919 210.790594,18.7557755 C210.790594,22.3896024 209.228351,26.931886 205.452932,33.5506422 Z M182.540046,88.4473842 C183.19098,86.1113527 183.451354,84.5539983 183.451354,81.8286281 C183.451354,77.0267854 182.930606,74.9503129 182.019298,75.3396515 C181.10799,75.7289901 180.326869,80.7903918 180.326869,83.7753211 C180.326869,86.1113527 180.71743,87.668707 182.540046,88.4473842 Z M166.006315,121.541165 C166.006315,124.006976 166.396876,125.953669 167.177997,125.953669 C169.911921,125.953669 176.811824,109.341889 180.457056,94.8065813 C178.113693,94.2874632 175.900516,93.2492269 174.468461,91.6918725 C169.52136,103.891149 166.006315,115.441527 166.006315,121.541165 Z M246.071232,23.9469568 C246.071232,25.7638702 245.941045,27.1914451 245.290111,29.3976971 C241.254318,44.8414615 227.063951,60.1554462 215.607507,67.8124386 C213.00377,74.4311948 211.311341,80.2712737 211.311341,84.8135573 C211.311341,87.9282661 212.092462,90.1345182 213.784891,90.1345182 C219.773487,90.1345182 227.324324,81.4392895 232.271425,72.0951632 C233.963854,68.8506749 236.827965,68.8506749 237.739273,72.2249427 C238.26002,74.1716357 238.129833,77.1565649 236.437404,80.6606123 C234.484601,84.5539983 224.850774,95.1959199 213.915078,95.1959199 C205.97368,95.1959199 201.026579,90.6536363 201.026579,81.6988486 C201.026579,79.4925965 201.286953,76.8970059 201.937887,74.3014152 C207.015175,52.7580129 221.726289,28.7487995 234.484601,15.3815077 C236.958152,12.9156966 239.301515,12.1370194 241.775065,14.4730509 C244.639176,16.9388621 246.071232,20.572689 246.071232,23.9469568 Z M238.780768,27.1914451 C238.26002,26.931886 234.875162,31.9932878 230.448809,39.6502802 C227.063951,45.3605796 221.335729,55.0940445 220.424421,57.3002965 C226.022456,51.8495562 230.448809,45.8796977 233.443107,40.818296 C237.86946,33.4208626 239.561889,27.7105632 238.780768,27.1914451 Z M264.037018,49.2539655 C262.084215,47.6966112 252.450388,55.6131626 246.201419,68.0719977 C247.242913,68.7208954 248.154221,68.9804544 249.065529,68.9804544 C252.190014,68.9804544 256.355993,65.0870685 258.95973,61.5830211 C262.735149,56.5216193 265.469073,50.4219813 264.037018,49.2539655 Z M273.801032,54.4451468 C273.801032,62.2319188 265.078513,75.8587696 253.622069,75.8587696 C250.497585,75.8587696 247.3731,74.9503129 244.378803,73.0036199 C243.597681,75.5992106 243.207121,78.3245807 243.207121,80.6606123 C243.207121,86.3709117 245.550484,90.3940772 249.45609,90.3940772 C259.350291,90.3940772 268.07281,80.7903918 273.410472,72.7440609 C274.842527,70.6675883 276.534956,70.4080293 277.576451,73.0036199 C277.967011,74.1716357 278.097198,77.9352421 275.753835,81.4392895 C270.285987,89.355841 259.871038,95.455479 249.716464,95.5852585 C237.609086,95.715038 230.969556,87.7984866 230.969556,77.416124 C230.969556,72.7440609 232.271425,67.6826591 235.005349,62.4914778 C241.775065,48.7348474 252.320201,41.8565322 259.871038,41.8565322 C261.693654,41.8565322 263.12571,42.1160913 264.427578,42.8947685 C268.07281,44.971241 270.676548,47.0477135 272.499164,49.6433041 C273.280285,50.8113199 273.801032,52.7580129 273.801032,54.4451468 Z M300.879898,42.1160913 C305.696812,42.1160913 311.16466,46.5285954 313.24765,50.4219813 C315.200452,54.7047059 313.117463,59.5065486 310.643912,64.5679503 C309.602418,66.5146433 308.821296,68.4613363 308.300549,69.8889111 C307.389241,72.3547223 306.217559,72.6142813 303.613822,71.316486 C301.270459,69.8889111 299.057282,67.4231 299.057282,63.9190527 C299.057282,62.2319188 299.708216,59.6363281 302.05158,54.3153673 C303.353448,51.7197767 304.264756,49.3837451 303.744009,48.8646269 C302.181767,47.5668316 293.719621,56.0025012 288.512147,66.5146433 C285.90841,71.8356041 284.606541,77.1565649 284.606541,81.0499509 C284.606541,86.7602503 286.949905,90.2642977 290.46495,90.3940772 C300.228964,90.5238567 309.211857,80.5308328 314.419331,72.7440609 C315.591013,70.7973679 317.543816,70.2782497 318.324937,72.4845018 C318.975871,74.1716357 318.975871,77.5459035 316.632508,81.1797304 C311.685407,88.9665024 301.140272,95.3256994 290.985697,95.455479 C279.008506,95.5852585 272.368977,87.9282661 272.368977,77.5459035 C272.368977,72.8738404 273.670845,67.6826591 276.404769,62.4914778 C283.044299,49.124186 293.329061,42.1160913 300.879898,42.1160913 Z M354.907444,15.1219486 C354.907444,20.1833504 349.049035,30.0465948 341.237824,44.1925638 C343.581187,42.5054299 345.794364,41.5969732 348.00754,40.818296 C353.865949,38.7418234 357.380994,40.818296 360.245105,46.7881544 C361.2866,48.7348474 361.807347,50.8113199 361.807347,53.017572 C361.807347,56.1322807 360.505478,59.376769 357.250807,62.4914778 C353.084828,66.5146433 347.747167,70.1484702 340.066142,72.7440609 C340.586889,82.4775258 343.711374,89.6154 347.61698,89.6154 C352.043333,89.6154 359.20361,80.5308328 362.848842,73.0036199 C364.411084,69.8889111 366.103513,69.6293521 367.275195,72.8738404 C367.926129,74.5609743 367.665756,77.8054626 365.712953,81.1797304 C363.239402,85.7220141 356.599873,95.0661404 345.53399,94.9363608 C335.900163,94.8065813 328.088951,87.2793684 328.088951,69.110234 C324.573906,75.3396515 321.058861,83.256203 316.892882,92.9896679 C315.981574,94.8065813 313.898584,95.455479 312.336342,93.508786 C311.034473,92.0812111 310.253352,90.2642977 310.253352,87.5389275 C310.253352,85.462455 310.643912,82.6073053 311.945781,78.8436989 C317.80419,62.2319188 336.551097,25.6340907 348.00754,9.93076732 C350.09053,7.33517668 352.17352,7.33517668 353.605575,10.0605469 C354.386696,11.6179012 354.907444,13.3050352 354.907444,15.1219486 Z M353.084828,47.177493 C352.043333,45.6201386 347.486793,47.177493 341.498197,51.7197767 C337.071844,55.0940445 333.426612,59.7661076 329.521007,66.2550842 C333.296425,64.9572889 342.409505,60.9341234 346.705672,57.4300761 C351.913146,53.1473515 354.256509,48.8646269 353.084828,47.177493 Z M361.416786,80.9201714 C361.416786,78.0650217 362.197908,74.4311948 364.020524,70.1484702 C366.624261,63.7892731 371.571361,53.5366901 376.778836,44.1925638 C372.743043,43.6734457 370.39968,42.2458708 369.358185,40.6885164 C367.535569,37.9631463 368.837437,36.6653509 371.831735,36.7951305 C374.826033,36.92491 378.341078,36.7951305 381.205189,36.5355714 C385.240981,29.5274767 387.974905,25.2447521 390.969203,20.9620275 C392.922006,18.1068778 394.484248,18.2366574 395.916303,20.7024685 C396.827611,22.2598229 397.348359,24.4660749 397.348359,26.0234293 C397.348359,28.3594609 396.827611,31.3443901 395.265369,34.978217 C399.301162,35.4973351 401.514338,37.5738077 402.425646,39.131162 C403.727515,41.4671936 402.816207,43.024548 399.691722,42.6352094 C397.348359,42.3756503 393.963501,42.6352094 391.09939,43.024548 C386.152289,51.4602176 378.731638,64.3083913 374.175098,74.1716357 C372.612856,77.6756831 371.831735,81.0499509 371.831735,83.9051006 C371.831735,87.7984866 373.133604,90.5238567 375.34678,90.5238567 C380.424067,90.5238567 387.193784,82.3477462 391.750324,72.6142813 C393.182379,69.4995726 396.176677,69.2400135 397.087985,72.7440609 C397.738919,75.469431 397.218172,77.416124 395.786117,80.4010532 C393.963501,84.2944392 385.240981,95.455479 374.305285,95.455479 C367.405382,95.455479 361.416786,89.8749591 361.416786,80.9201714 Z" id="refleckt" fill="url(#linearGradient-1)" fill-rule="nonzero"></path>
        <path d="M242.933249,143.178893 C243.069927,142.021446 243.032693,141.105735 242.476818,139.673547 C239.316424,129.728854 225.595101,120.084455 214.441128,115.562993 C212.662279,111.583377 211.783601,108.06152 212.483262,105.262015 C212.968996,103.333968 214.10821,101.922043 215.824678,101.830831 C221.898333,101.508081 228.449815,106.659743 232.468643,112.436167 C233.882385,114.461165 236.893139,114.388463 238.199984,112.18854 C238.945812,110.913017 239.122179,108.982449 237.74764,106.775948 C236.175796,104.338828 227.728894,97.9941686 216.738106,98.6520283 C208.756701,99.1297598 202.976755,102.20232 201.417657,107.625633 C201.04039,108.952171 200.870158,110.498402 201.112949,112.028314 C203.137108,124.71484 216.173552,139.194715 229.173606,147.900854 C231.768128,149.571441 234.368569,150.208861 237.363618,148.918554 C240.796016,147.545595 242.682122,145.324639 242.933249,143.178893 Z M234.415885,141.264591 C233.81728,141.406263 230.537537,138.113422 226.444993,133.231191 C223.383521,129.64152 218.37784,123.620943 217.683927,122.26899 C222.992382,125.61451 227.091657,129.351996 229.8179,132.558246 C233.956686,137.311533 235.32411,140.96934 234.415885,141.264591 Z M263.393091,127.599338 C261.212368,128.627967 251.442008,123.408431 245.874425,115.392387 C247.014476,114.945205 247.984248,114.753235 248.931723,114.730183 C252.180208,114.651145 256.237792,117.126963 258.733361,119.407265 C262.410608,122.741083 264.98795,126.821112 263.393091,127.599338 Z M274.351734,124.123028 C274.663776,118.686032 266.282885,109.448028 254.528474,109.853721 C251.322726,109.964365 248.037526,110.679582 244.781488,112.068074 C244.218978,110.380123 244.077033,108.593823 244.300879,107.048259 C244.855417,103.259663 247.597571,100.453464 251.506215,100.240181 C261.408115,99.699863 269.616127,105.91522 274.697038,111.33704 C276.090012,112.751556 277.831532,112.886843 279.002604,111.02411 C279.446555,110.185566 279.714119,107.516442 277.458252,105.133738 C272.299215,99.8301876 262.285136,96.1865392 252.226196,96.7171725 C240.236291,97.3705837 232.692428,102.937991 231.467014,109.65369 C230.929183,112.656244 231.70961,115.864247 234.008847,119.136953 C239.860587,127.947157 250.656146,132.542152 258.815102,132.662522 C260.784505,132.691576 262.345832,132.538657 263.792402,132.029827 C267.822203,130.657808 270.712541,129.252313 272.772768,127.464777 C273.653776,126.654918 274.285353,125.299282 274.351734,124.123028 Z M302.924846,131.996529 C308.18018,132.069574 314.060831,128.892814 316.230888,126.022144 C318.224736,122.838573 315.882587,119.290809 313.154134,115.590488 C312.020531,114.179323 311.166605,112.767762 310.598027,111.734082 C309.609331,109.954077 308.384896,109.799575 305.682336,110.820953 C303.241272,111.919941 300.925734,113.754008 300.926581,116.276931 C300.927061,117.491572 301.620096,119.352468 304.139727,123.178705 C305.554158,125.058761 306.555097,126.758744 305.996886,127.134157 C304.315769,128.067325 295.22182,122.009861 289.831337,114.636928 C287.208246,110.959666 285.980796,107.269756 286.078103,104.539687 C286.223446,100.531942 288.683518,97.9457977 292.239546,97.666609 C302.109265,97.0517489 311.365994,103.899458 316.926648,109.455662 C318.201825,110.866296 320.258628,111.199339 321.00342,109.530788 C321.624443,108.250316 321.509033,105.729568 318.97659,103.114207 C313.722329,97.5849595 303.013141,93.5305067 292.840793,94.041164 C280.847953,94.6637589 273.829288,100.327263 273.343697,107.448065 C273.130916,110.644469 274.265838,114.15984 276.943696,117.665608 C283.635531,126.860382 294.686756,131.882025 302.924846,131.996529 Z M364.576566,155.468524 C364.176369,151.277454 356.858088,142.932491 347.260959,131.375401 C349.93449,132.751997 352.420694,133.514301 354.903078,134.178643 C361.499945,135.977951 365.179175,134.342158 367.752384,129.461271 C368.694145,127.861814 369.052455,126.14972 368.831801,124.330163 C368.517557,121.765199 366.797666,119.113108 363.027233,116.615703 C358.242216,113.439017 352.312031,110.659255 344.072452,108.828873 C343.917492,101.179232 346.564359,95.4335691 350.529742,95.2265929 C355.023843,94.9920198 363.259808,101.935335 367.847468,107.917079 C369.824319,110.420558 371.630107,110.588815 372.485227,107.886271 C372.966688,106.477481 372.312293,103.820818 369.89789,101.136823 C366.836531,97.5525173 359.083646,90.3918847 347.968505,91.1546493 C338.28865,91.8288584 330.823782,98.0491031 331.737749,111.99037 C327.772828,107.323551 323.81313,101.445716 319.227437,94.3215424 C318.252219,93.0121567 316.139486,92.6513757 314.616488,94.1953994 C313.33454,95.3319057 312.581294,96.7247952 312.635556,98.7488311 C312.676671,100.291271 313.134282,102.395385 314.556922,105.143578 C321.145098,117.447239 343.199574,145.984315 357.108024,159.284383 C359.665794,161.568691 362.049302,161.727849 363.484377,159.577247 C364.256385,158.340549 364.718403,156.975562 364.576566,155.468524 Z M360.069615,129.264613 C359.059286,130.488722 353.938757,129.225223 347.072217,125.669629 C342.048751,123.085434 337.839111,119.555878 333.310642,114.71934 C337.403066,115.622712 347.411458,118.548879 352.296289,121.21779 C358.281928,124.545487 361.205012,127.934095 360.069615,129.264613 Z M364.615233,102.44174 C364.925996,104.739108 366.134584,107.642796 368.515813,111.058508 C371.979444,116.188573 378.457653,124.601218 385.233574,132.459533 C380.872865,132.847051 378.462399,134.010201 377.487565,135.294563 C375.767509,137.532531 377.343625,138.646087 380.643277,138.609021 C383.94175,138.570683 387.84633,138.764393 391.048013,139.055135 C396.41956,145.220302 400.03282,149.062096 403.965339,152.969899 C406.553101,155.604748 408.30683,155.576532 409.590357,153.453507 C410.401949,152.108774 410.676211,150.163714 410.453654,148.774988 C410.117418,146.695217 409.103107,144.026356 406.838435,140.768166 C411.236908,140.41583 413.36811,138.624595 414.130134,137.258403 C415.190962,135.202886 413.939374,133.804982 410.572269,134.105681 C408.039497,134.300193 404.284594,134.023366 401.085254,133.643921 C394.502422,126.337204 384.790833,115.538141 378.694645,107.464314 C376.615083,104.63683 375.374082,101.904074 375.008129,99.5719443 C374.504024,96.3987866 375.472338,94.1125165 377.724287,93.9937233 C382.890523,93.7211975 391.063326,100.178295 397.33108,108.216729 C399.331689,110.828724 402.531112,110.973657 402.908437,107.943905 C403.129501,105.589507 402.255417,103.944448 400.262034,101.45846 C397.724113,98.2402544 387.019331,89.3815221 375.990202,90.0342321 C369.031347,90.4460611 363.62317,95.2603931 364.615233,102.44174 Z" id="leckt" fill="url(#linearGradient-2)" fill-rule="nonzero" opacity="0.322564338" transform="translate(307.748770, 125.549111) rotate(1.000000) translate(-307.748770, -125.549111) "></path>
        <g id="Group" transform="translate(40.000000, 38.000000) scale(-1, 1) rotate(11.000000) translate(-40.000000, -38.000000) translate(12.000000, 13.000000)" fill="#CB6767">
            <path d="M11.9623534,0.0239018364 C19.1710852,-0.43988636 25.5257067,5.9074287 26.1558102,14.2012045 C26.3020719,16.126383 26.7034084,19.0613583 27.1433613,22.4394081 C28.3856441,19.2735497 29.4805378,16.5280493 30.0884053,14.6980369 C32.7293706,6.74729203 40.4724169,1.87837339 47.3829834,3.8230027 C54.2935499,5.76763201 57.7547455,13.7894177 55.1137803,21.7401625 C52.8747045,28.481001 35.9739106,45.3769916 26.6705443,49.178094 C26.198687,49.6653791 25.6268564,49.9498033 24.9413216,49.9939297 C24.6428027,50.0131411 24.3274045,49.9864859 23.996992,49.9171411 C23.4482644,49.9739084 22.9547864,49.9460404 22.5239843,49.8248129 C21.7597369,49.6097542 21.2247434,49.1098889 20.8812158,48.3800876 C12.7453881,42.5873198 0.581083092,22.8622072 0.0507278432,15.8813734 C-0.579375618,7.58759763 4.75364634,0.488045317 11.9623534,0.0239018364 Z" id="Combined-Shape"></path>
        </g>
    </g>
</svg>