<?xml version="1.0" encoding="UTF-8"?>
<svg width="392px" height="168px" viewBox="0 0 392 168" version="1.1" xmlns="http://www.w3.org/2000/svg" xmlns:xlink="http://www.w3.org/1999/xlink">
    <!-- Generator: Sketch 57.1 (83088) - https://sketch.com -->
    <title>Artboard Copy 2</title>
    <desc>Created with Sketch.</desc>
    <defs>
        <linearGradient x1="50%" y1="0%" x2="50%" y2="100%" id="linearGradient-1">
            <stop stop-color="#ECF0EF" offset="0%"></stop>
            <stop stop-color="#D4DDDA" offset="100%"></stop>
        </linearGradient>
        <linearGradient x1="50%" y1="0%" x2="50%" y2="63.2372178%" id="linearGradient-2">
            <stop stop-color="#ECF0EF" stop-opacity="0.763767483" offset="0%"></stop>
            <stop stop-color="#D4DDDA" stop-opacity="0" offset="100%"></stop>
        </linearGradient>
    </defs>
    <g id="Artboard-Copy-2" stroke="none" stroke-width="1" fill="none" fill-rule="evenodd">
        <path d="M39.525,37.19 C42.255,37.19 43.425,38.75 43.425,41.74 C43.425,44.21 42.515,47.98 41.085,52.14 C44.205,51.36 47.715,49.54 51.615,46.68 C53.825,45.12 55.125,44.86 56.815,46.55 C58.635,48.37 60.585,51.75 60.585,54.87 C60.585,56.43 59.935,58.25 58.505,59.94 C51.485,68 44.075,78.27 44.075,85.94 C44.075,89.32 45.115,91.4 46.935,91.4 C51.355,91.4 56.555,84.12 60.585,75.15 C61.625,72.81 63.445,72.68 64.615,75.02 C65.525,76.84 65.655,79.96 64.225,83.47 C61.105,90.88 53.435,96.47 46.025,96.47 C38.095,96.47 33.805,90.88 33.805,83.86 C33.805,75.54 40.695,65.53 47.195,57.6 C43.815,59.03 40.565,59.55 37.705,59.68 C27.955,76.58 20.545,88.54 18.725,97.51 C18.205,99.85 16.515,101.02 14.175,98.55 C11.965,96.47 10.925,93.74 10.925,90.88 C10.925,88.02 11.835,84.9 13.655,81.52 C15.865,77.36 22.495,66.7 29.645,57.86 C28.085,56.43 27.175,54.74 27.175,53.05 C27.175,46.42 35.495,37.19 39.525,37.19 Z M93.345,49.67 C91.395,48.11 81.775,56.04 75.535,68.52 C76.575,69.17 77.485,69.43 78.395,69.43 C81.515,69.43 85.675,65.53 88.275,62.02 C92.045,56.95 94.775,50.84 93.345,49.67 Z M103.095,54.87 C103.095,62.67 94.385,76.32 82.945,76.32 C79.825,76.32 76.705,75.41 73.715,73.46 C72.935,76.06 72.545,78.79 72.545,81.13 C72.545,86.85 74.885,90.88 78.785,90.88 C88.665,90.88 97.375,81.26 102.705,73.2 C104.135,71.12 105.825,70.86 106.865,73.46 C107.255,74.63 107.385,78.4 105.045,81.91 C99.585,89.84 89.185,95.95 79.045,96.08 C66.955,96.21 60.325,88.28 60.325,77.88 C60.325,73.2 61.625,68.13 64.355,62.93 C71.115,49.15 81.645,42.26 89.185,42.26 C91.005,42.26 92.435,42.52 93.735,43.3 C97.375,45.38 99.975,47.46 101.795,50.06 C102.575,51.23 103.095,53.18 103.095,54.87 Z M138.195,33.94 C132.735,43.56 124.025,57.47 117.785,69.69 C124.025,71.9 124.805,79.44 124.155,86.46 C128.185,83.21 131.695,78.14 134.425,72.42 C135.855,69.56 138.455,69.3 139.625,72.68 C140.405,74.89 139.625,77.75 138.455,80.74 C137.155,83.86 130.915,91.14 123.245,94.13 C121.295,107 115.575,121.82 109.335,129.75 C106.735,133 104.135,134.56 100.755,134.56 C95.815,134.56 89.705,126.76 89.705,116.75 C89.705,90.23 122.205,36.41 137.025,14.05 C137.805,12.88 138.845,12.23 139.755,12.23 C141.315,12.23 143.525,14.57 143.525,19.12 C143.525,22.76 141.965,27.31 138.195,33.94 Z M115.315,88.93 C115.965,86.59 116.225,85.03 116.225,82.3 C116.225,77.49 115.705,75.41 114.795,75.8 C113.885,76.19 113.105,81.26 113.105,84.25 C113.105,86.59 113.495,88.15 115.315,88.93 Z M98.805,122.08 C98.805,124.55 99.195,126.5 99.975,126.5 C102.705,126.5 109.595,109.86 113.235,95.3 C110.895,94.78 108.685,93.74 107.255,92.18 C102.315,104.4 98.805,115.97 98.805,122.08 Z M178.755,24.32 C178.755,26.14 178.625,27.57 177.975,29.78 C173.945,45.25 159.775,60.59 148.335,68.26 C145.735,74.89 144.045,80.74 144.045,85.29 C144.045,88.41 144.825,90.62 146.515,90.62 C152.495,90.62 160.035,81.91 164.975,72.55 C166.665,69.3 169.525,69.3 170.435,72.68 C170.955,74.63 170.825,77.62 169.135,81.13 C167.185,85.03 157.565,95.69 146.645,95.69 C138.715,95.69 133.775,91.14 133.775,82.17 C133.775,79.96 134.035,77.36 134.685,74.76 C139.755,53.18 154.445,29.13 167.185,15.74 C169.655,13.27 171.995,12.49 174.465,14.83 C177.325,17.3 178.755,20.94 178.755,24.32 Z M171.475,27.57 C170.955,27.31 167.575,32.38 163.155,40.05 C159.775,45.77 154.055,55.52 153.145,57.73 C158.735,52.27 163.155,46.29 166.145,41.22 C170.565,33.81 172.255,28.09 171.475,27.57 Z M196.695,49.67 C194.745,48.11 185.125,56.04 178.885,68.52 C179.925,69.17 180.835,69.43 181.745,69.43 C184.865,69.43 189.025,65.53 191.625,62.02 C195.395,56.95 198.125,50.84 196.695,49.67 Z M206.445,54.87 C206.445,62.67 197.735,76.32 186.295,76.32 C183.175,76.32 180.055,75.41 177.065,73.46 C176.285,76.06 175.895,78.79 175.895,81.13 C175.895,86.85 178.235,90.88 182.135,90.88 C192.015,90.88 200.725,81.26 206.055,73.2 C207.485,71.12 209.175,70.86 210.215,73.46 C210.605,74.63 210.735,78.4 208.395,81.91 C202.935,89.84 192.535,95.95 182.395,96.08 C170.305,96.21 163.675,88.28 163.675,77.88 C163.675,73.2 164.975,68.13 167.705,62.93 C174.465,49.15 184.995,42.26 192.535,42.26 C194.355,42.26 195.785,42.52 197.085,43.3 C200.725,45.38 203.325,47.46 205.145,50.06 C205.925,51.23 206.445,53.18 206.445,54.87 Z M233.485,42.52 C238.295,42.52 243.755,46.94 245.835,50.84 C247.785,55.13 245.705,59.94 243.235,65.01 C242.195,66.96 241.415,68.91 240.895,70.34 C239.985,72.81 238.815,73.07 236.215,71.77 C233.875,70.34 231.665,67.87 231.665,64.36 C231.665,62.67 232.315,60.07 234.655,54.74 C235.955,52.14 236.865,49.8 236.345,49.28 C234.785,47.98 226.335,56.43 221.135,66.96 C218.535,72.29 217.235,77.62 217.235,81.52 C217.235,87.24 219.575,90.75 223.085,90.88 C232.835,91.01 241.805,81 247.005,73.2 C248.175,71.25 250.125,70.73 250.905,72.94 C251.555,74.63 251.555,78.01 249.215,81.65 C244.275,89.45 233.745,95.82 223.605,95.95 C211.645,96.08 205.015,88.41 205.015,78.01 C205.015,73.33 206.315,68.13 209.045,62.93 C215.675,49.54 225.945,42.52 233.485,42.52 Z M287.435,15.48 C287.435,20.55 281.585,30.43 273.785,44.6 C276.125,42.91 278.335,42 280.545,41.22 C286.395,39.14 289.905,41.22 292.765,47.2 C293.805,49.15 294.325,51.23 294.325,53.44 C294.325,56.56 293.025,59.81 289.775,62.93 C285.615,66.96 280.285,70.6 272.615,73.2 C273.135,82.95 276.255,90.1 280.155,90.1 C284.575,90.1 291.725,81 295.365,73.46 C296.925,70.34 298.615,70.08 299.785,73.33 C300.435,75.02 300.175,78.27 298.225,81.65 C295.755,86.2 289.125,95.56 278.075,95.43 C268.455,95.3 260.655,87.76 260.655,69.56 C257.145,75.8 253.635,83.73 249.475,93.48 C248.565,95.3 246.485,95.95 244.925,94 C243.625,92.57 242.845,90.75 242.845,88.02 C242.845,85.94 243.235,83.08 244.535,79.31 C250.385,62.67 269.105,26.01 280.545,10.28 C282.625,7.68 284.705,7.68 286.135,10.41 C286.915,11.97 287.435,13.66 287.435,15.48 Z M285.615,47.59 C284.575,46.03 280.025,47.59 274.045,52.14 C269.625,55.52 265.985,60.2 262.085,66.7 C265.855,65.4 274.955,61.37 279.245,57.86 C284.445,53.57 286.785,49.28 285.615,47.59 Z M293.935,81.39 C293.935,78.53 294.715,74.89 296.535,70.6 C299.135,64.23 304.075,53.96 309.275,44.6 C305.245,44.08 302.905,42.65 301.865,41.09 C300.045,38.36 301.345,37.06 304.335,37.19 C307.325,37.32 310.835,37.19 313.695,36.93 C317.725,29.91 320.455,25.62 323.445,21.33 C325.395,18.47 326.955,18.6 328.385,21.07 C329.295,22.63 329.815,24.84 329.815,26.4 C329.815,28.74 329.295,31.73 327.735,35.37 C331.765,35.89 333.975,37.97 334.885,39.53 C336.185,41.87 335.275,43.43 332.155,43.04 C329.815,42.78 326.435,43.04 323.575,43.43 C318.635,51.88 311.225,64.75 306.675,74.63 C305.115,78.14 304.335,81.52 304.335,84.38 C304.335,88.28 305.635,91.01 307.845,91.01 C312.915,91.01 319.675,82.82 324.225,73.07 C325.655,69.95 328.645,69.69 329.555,73.2 C330.205,75.93 329.685,77.88 328.255,80.87 C326.435,84.77 317.725,95.95 306.805,95.95 C299.915,95.95 293.935,90.36 293.935,81.39 Z" id="refleckt" fill="url(#linearGradient-1)" fill-rule="nonzero"></path>
        <path d="M175.933249,143.178893 C176.069927,142.021446 176.032693,141.105735 175.476818,139.673547 C172.316424,129.728854 158.595101,120.084455 147.441128,115.562993 C145.662279,111.583377 144.783601,108.06152 145.483262,105.262015 C145.968996,103.333968 147.10821,101.922043 148.824678,101.830831 C154.898333,101.508081 161.449815,106.659743 165.468643,112.436167 C166.882385,114.461165 169.893139,114.388463 171.199984,112.18854 C171.945812,110.913017 172.122179,108.982449 170.74764,106.775948 C169.175796,104.338828 160.728894,97.9941686 149.738106,98.6520283 C141.756701,99.1297598 135.976755,102.20232 134.417657,107.625633 C134.04039,108.952171 133.870158,110.498402 134.112949,112.028314 C136.137108,124.71484 149.173552,139.194715 162.173606,147.900854 C164.768128,149.571441 167.368569,150.208861 170.363618,148.918554 C173.796016,147.545595 175.682122,145.324639 175.933249,143.178893 Z M167.415885,141.264591 C166.81728,141.406263 163.537537,138.113422 159.444993,133.231191 C156.383521,129.64152 151.37784,123.620943 150.683927,122.26899 C155.992382,125.61451 160.091657,129.351996 162.8179,132.558246 C166.956686,137.311533 168.32411,140.96934 167.415885,141.264591 Z M196.393091,127.599338 C194.212368,128.627967 184.442008,123.408431 178.874425,115.392387 C180.014476,114.945205 180.984248,114.753235 181.931723,114.730183 C185.180208,114.651145 189.237792,117.126963 191.733361,119.407265 C195.410608,122.741083 197.98795,126.821112 196.393091,127.599338 Z M207.351734,124.123028 C207.663776,118.686032 199.282885,109.448028 187.528474,109.853721 C184.322726,109.964365 181.037526,110.679582 177.781488,112.068074 C177.218978,110.380123 177.077033,108.593823 177.300879,107.048259 C177.855417,103.259663 180.597571,100.453464 184.506215,100.240181 C194.408115,99.699863 202.616127,105.91522 207.697038,111.33704 C209.090012,112.751556 210.831532,112.886843 212.002604,111.02411 C212.446555,110.185566 212.714119,107.516442 210.458252,105.133738 C205.299215,99.8301876 195.285136,96.1865392 185.226196,96.7171725 C173.236291,97.3705837 165.692428,102.937991 164.467014,109.65369 C163.929183,112.656244 164.70961,115.864247 167.008847,119.136953 C172.860587,127.947157 183.656146,132.542152 191.815102,132.662522 C193.784505,132.691576 195.345832,132.538657 196.792402,132.029827 C200.822203,130.657808 203.712541,129.252313 205.772768,127.464777 C206.653776,126.654918 207.285353,125.299282 207.351734,124.123028 Z M235.924846,131.996529 C241.18018,132.069574 247.060831,128.892814 249.230888,126.022144 C251.224736,122.838573 248.882587,119.290809 246.154134,115.590488 C245.020531,114.179323 244.166605,112.767762 243.598027,111.734082 C242.609331,109.954077 241.384896,109.799575 238.682336,110.820953 C236.241272,111.919941 233.925734,113.754008 233.926581,116.276931 C233.927061,117.491572 234.620096,119.352468 237.139727,123.178705 C238.554158,125.058761 239.555097,126.758744 238.996886,127.134157 C237.315769,128.067325 228.22182,122.009861 222.831337,114.636928 C220.208246,110.959666 218.980796,107.269756 219.078103,104.539687 C219.223446,100.531942 221.683518,97.9457977 225.239546,97.666609 C235.109265,97.0517489 244.365994,103.899458 249.926648,109.455662 C251.201825,110.866296 253.258628,111.199339 254.00342,109.530788 C254.624443,108.250316 254.509033,105.729568 251.97659,103.114207 C246.722329,97.5849595 236.013141,93.5305067 225.840793,94.041164 C213.847953,94.6637589 206.829288,100.327263 206.343697,107.448065 C206.130916,110.644469 207.265838,114.15984 209.943696,117.665608 C216.635531,126.860382 227.686756,131.882025 235.924846,131.996529 Z M297.576566,155.468524 C297.176369,151.277454 289.858088,142.932491 280.260959,131.375401 C282.93449,132.751997 285.420694,133.514301 287.903078,134.178643 C294.499945,135.977951 298.179175,134.342158 300.752384,129.461271 C301.694145,127.861814 302.052455,126.14972 301.831801,124.330163 C301.517557,121.765199 299.797666,119.113108 296.027233,116.615703 C291.242216,113.439017 285.312031,110.659255 277.072452,108.828873 C276.917492,101.179232 279.564359,95.4335691 283.529742,95.2265929 C288.023843,94.9920198 296.259808,101.935335 300.847468,107.917079 C302.824319,110.420558 304.630107,110.588815 305.485227,107.886271 C305.966688,106.477481 305.312293,103.820818 302.89789,101.136823 C299.836531,97.5525173 292.083646,90.3918847 280.968505,91.1546493 C271.28865,91.8288584 263.823782,98.0491031 264.737749,111.99037 C260.772828,107.323551 256.81313,101.445716 252.227437,94.3215424 C251.252219,93.0121567 249.139486,92.6513757 247.616488,94.1953994 C246.33454,95.3319057 245.581294,96.7247952 245.635556,98.7488311 C245.676671,100.291271 246.134282,102.395385 247.556922,105.143578 C254.145098,117.447239 276.199574,145.984315 290.108024,159.284383 C292.665794,161.568691 295.049302,161.727849 296.484377,159.577247 C297.256385,158.340549 297.718403,156.975562 297.576566,155.468524 Z M293.069615,129.264613 C292.059286,130.488722 286.938757,129.225223 280.072217,125.669629 C275.048751,123.085434 270.839111,119.555878 266.310642,114.71934 C270.403066,115.622712 280.411458,118.548879 285.296289,121.21779 C291.281928,124.545487 294.205012,127.934095 293.069615,129.264613 Z M297.615233,102.44174 C297.925996,104.739108 299.134584,107.642796 301.515813,111.058508 C304.979444,116.188573 311.457653,124.601218 318.233574,132.459533 C313.872865,132.847051 311.462399,134.010201 310.487565,135.294563 C308.767509,137.532531 310.343625,138.646087 313.643277,138.609021 C316.94175,138.570683 320.84633,138.764393 324.048013,139.055135 C329.41956,145.220302 333.03282,149.062096 336.965339,152.969899 C339.553101,155.604748 341.30683,155.576532 342.590357,153.453507 C343.401949,152.108774 343.676211,150.163714 343.453654,148.774988 C343.117418,146.695217 342.103107,144.026356 339.838435,140.768166 C344.236908,140.41583 346.36811,138.624595 347.130134,137.258403 C348.190962,135.202886 346.939374,133.804982 343.572269,134.105681 C341.039497,134.300193 337.284594,134.023366 334.085254,133.643921 C327.502422,126.337204 317.790833,115.538141 311.694645,107.464314 C309.615083,104.63683 308.374082,101.904074 308.008129,99.5719443 C307.504024,96.3987866 308.472338,94.1125165 310.724287,93.9937233 C315.890523,93.7211975 324.063326,100.178295 330.33108,108.216729 C332.331689,110.828724 335.531112,110.973657 335.908437,107.943905 C336.129501,105.589507 335.255417,103.944448 333.262034,101.45846 C330.724113,98.2402544 320.019331,89.3815221 308.990202,90.0342321 C302.031347,90.4460611 296.62317,95.2603931 297.615233,102.44174 Z" id="leckt" fill="url(#linearGradient-2)" fill-rule="nonzero" opacity="0.322564338" transform="translate(240.748770, 125.549111) rotate(1.000000) translate(-240.748770, -125.549111) "></path>
    </g>
</svg>