<?xml version="1.0" encoding="UTF-8"?>
<svg width="429px" height="219px" viewBox="0 0 429 219" version="1.1" xmlns="http://www.w3.org/2000/svg" xmlns:xlink="http://www.w3.org/1999/xlink">
    <!-- Generator: Sketch 57.1 (83088) - https://sketch.com -->
    <title>logo</title>
    <desc>Created with Sketch.</desc>
    <g id="logo" stroke="none" stroke-width="1" fill="none" fill-rule="evenodd">
        <g id="Artboard" transform="translate(-11.000000, -16.000000)" fill="#D4DDDA">
            <g id="logo" transform="translate(11.000000, 14.000000)">
                <g id="refleckt">
                    <g id="pond" transform="translate(68.422746, 141.365644)">
                        <g id="c" transform="translate(107.077254, 40.634356) scale(-1, 1) rotate(-95.000000) translate(-107.077254, -40.634356) translate(84.577254, 1.634356)">
                            <path d="M22.2452455,2.76098867 C30.3345475,2.76098867 36.8922226,19.056255 36.8922226,39.1574846 C36.8922226,59.2587143 30.3345475,75.5539806 22.2452455,75.5539806 C14.9938544,75.5539806 8.97322391,62.4596889 7.80376145,45.2675111 C9.77245562,51.9854227 13.3399534,56.4744566 17.4142407,56.4744566 C23.6160389,56.4744566 28.6435898,46.0732228 28.6435898,33.2426506 C28.6435898,20.4120785 23.6160389,10.0108447 17.4142407,10.0108447 C15.5346413,10.0108447 13.7629005,10.9662336 12.2062879,12.6550871 C14.82783,6.52028285 18.3598657,2.76098867 22.2452455,2.76098867 Z" id="Combined-Shape" transform="translate(22.347992, 39.157485) scale(-1, 1) rotate(-12.000000) translate(-22.347992, -39.157485) "></path>
                        </g>
                        <g id="c" transform="translate(93.000000, 51.500000) scale(-1, 1) rotate(-95.000000) translate(-93.000000, -51.500000) translate(50.000000, -38.000000)">
                            <path d="M41.8517948,3.76859341 C56.4873407,3.76859341 68.3517948,42.2087088 68.3517948,89.6269941 C68.3517948,137.045279 56.4873407,175.485395 41.8517948,175.485395 C30.9938406,175.485395 21.6610944,154.327968 17.5666997,124.043476 C21.6855606,138.958375 27.7298928,149.97676 34.4718955,149.97676 C46.8983023,149.97676 60.103162,105.941043 60.103162,75.6740524 C60.103162,45.4070618 50.0295689,20.8708179 37.603162,20.8708179 C31.4241762,20.8708179 25.0569849,28.5705478 20.2165359,40.0338916 C25.0172824,18.0907694 32.9183062,3.76859341 41.8517948,3.76859341 Z" id="Combined-Shape" transform="translate(42.959247, 89.626994) scale(-1, 1) rotate(-12.000000) translate(-42.959247, -89.626994) "></path>
                        </g>
                    </g>
                    <g id="c" transform="translate(274.021546, 112.499405) scale(-1, 1) translate(-274.021546, -112.499405) translate(239.521546, 70.499405)">
                        <path d="M34.0250428,5.76099574 C49.110498,5.76099574 61.3396757,22.056262 61.3396757,42.1574917 C61.3396757,62.2587214 49.110498,78.5539877 34.0250428,78.5539877 C20.501916,78.5539877 9.27408042,65.4591879 7.0934997,48.2665176 C10.7641469,54.9848708 17.4174034,59.4744636 25.0158716,59.4744636 C36.5813873,59.4744636 45.9570902,49.0732298 45.9570902,36.2426577 C45.9570902,23.4120856 36.5813873,13.0108518 25.0158716,13.0108518 C21.5103517,13.0108518 18.2060105,13.9664157 15.3029459,15.6555583 C20.1925652,9.52028992 26.7793345,5.76099574 34.0250428,5.76099574 Z" id="Combined-Shape" transform="translate(34.216588, 42.157492) scale(-1, 1) rotate(-12.000000) translate(-34.216588, -42.157492) "></path>
                    </g>
                    <g id="R" transform="translate(0.000000, 71.833333)">
                        <path d="M12.66106,-1.13686838e-13 C33.4479548,-1.13686838e-13 27.4804425,10.0542024 27.4804425,34.7488095 C27.4804425,59.4434167 18.0269105,89.4270833 12.66106,89.4270833 C7.2952096,89.4270833 2.94532835,69.4081488 2.94532835,44.7135417 C2.94532835,20.0189345 -8.12583467,-1.13686838e-13 12.66106,-1.13686838e-13 Z M11.706788,8.94270833 C3.55610035,8.94270833 5.5668109,19.1210245 6.85044799,26.0643212 C8.13408509,33.0076179 9.60280028,35.7708333 11.706788,35.7708333 C13.8107757,35.7708333 15.6710711,33.0076179 16.859983,26.0643212 C18.048895,19.1210245 19.8574756,8.94270833 11.706788,8.94270833 Z" id="Combined-Shape"></path>
                        <path d="M40.9977876,6.19791667 C54.7914658,6.19791667 65.9734513,22.6491203 65.9734513,42.9427083 C65.9734513,46.9481969 65.5378269,50.8039949 64.7324781,54.4131489 C61.7078567,37.6780003 53.4893706,25.6770833 43.8252212,25.6770833 C31.996874,25.6770833 22.3341755,43.6548317 21.7091333,66.2863469 C18.1559937,59.9396496 16.0221239,51.8078021 16.0221239,42.9427083 C16.0221239,22.6491203 27.2041094,6.19791667 40.9977876,6.19791667 Z" id="Combined-Shape"></path>
                    </g>
                    <g id="e-copy-2" transform="translate(67.858407, 81.572917)">
                        <path d="M43.0806003,23.8509967 C51.0182662,28.3111651 56.3848681,36.8406578 56.3848681,46.629887 C56.3848681,61.0330952 44.7671492,72.7092024 30.4359668,72.7092024 C21.3286491,72.7092024 13.3171558,67.993841 8.6866802,60.8597964 C12.4284803,62.9606106 16.7405807,64.1586072 21.3310891,64.1586072 C35.6622716,64.1586072 47.2799904,52.4824999 47.2799904,38.0792917 C47.2799904,32.8941368 45.7743341,28.0624141 43.1784583,24.0016485 Z" id="Combined-Shape-Copy-2" transform="translate(32.535450, 48.280392) scale(-1, 1) rotate(24.000000) translate(-32.535450, -48.280392) "></path>
                        <path d="M8.30433995,19.0218175 C17.0748169,3.96050332 32.0446106,-3.74969001 41.7406529,1.80071289 C51.4366053,7.35127138 52.1871292,24.060572 43.4172479,39.1222301 C34.646771,54.1835443 19.6769772,61.8937376 9.98093501,56.3433347 C0.284982603,50.7927762 -0.46554135,34.0834756 8.30433995,19.0218175 Z M14.2833735,27.4287188 C10.7922279,35.2037132 12.1077339,43.336685 17.2217354,45.5942998 C22.3357645,47.8518528 29.3117155,43.3791477 32.8030825,35.6042518 C36.2942281,27.8292573 34.9787221,19.6962856 29.8647205,17.4386708 C24.7506915,15.1811178 17.7747405,19.6538229 14.2833735,27.4287188 Z" id="Combined-Shape"></path>
                    </g>
                    <g id="e-copy-2" transform="translate(220.084071, 119.416667) scale(-1, 1) translate(-220.084071, -119.416667) translate(187.584071, 78.916667)">
                        <path d="M43.0806003,23.8509967 C51.0182662,28.3111651 56.3848681,36.8406578 56.3848681,46.629887 C56.3848681,61.0330952 44.7671492,72.7092024 30.4359668,72.7092024 C21.3286491,72.7092024 13.3171558,67.993841 8.6866802,60.8597964 C12.4284803,62.9606106 16.7405807,64.1586072 21.3310891,64.1586072 C35.6622716,64.1586072 47.2799904,52.4824999 47.2799904,38.0792917 C47.2799904,32.8941368 45.7743341,28.0624141 43.1784583,24.0016485 Z" id="Combined-Shape-Copy-2" transform="translate(32.535450, 48.280392) scale(-1, 1) rotate(24.000000) translate(-32.535450, -48.280392) "></path>
                        <path d="M8.30433995,19.0218175 C17.0748169,3.96050332 32.0446106,-3.74969001 41.7406529,1.80071289 C51.4366053,7.35127138 52.1871292,24.060572 43.4172479,39.1222301 C34.646771,54.1835443 19.6769772,61.8937376 9.98093501,56.3433347 C0.284982603,50.7927762 -0.46554135,34.0834756 8.30433995,19.0218175 Z M14.2833735,27.4287188 C10.7922279,35.2037132 12.1077339,43.336685 17.2217354,45.5942998 C22.3357645,47.8518528 29.3117155,43.3791477 32.8030825,35.6042518 C36.2942281,27.8292573 34.9787221,19.6962856 29.8647205,17.4386708 C24.7506915,15.1811178 17.7747405,19.6538229 14.2833735,27.4287188 Z" id="Combined-Shape"></path>
                    </g>
                    <path d="M181.161816,8.08333333 C201.615782,8.08333333 195.743847,24.9067016 195.743847,66.227381 C195.743847,107.54806 186.441726,157.71875 181.161816,157.71875 C175.881907,157.71875 171.601695,124.221721 171.601695,82.9010417 C171.601695,41.5803623 160.707851,8.08333333 181.161816,8.08333333 Z M180.179661,22.6193452 C172.305629,22.6193452 174.248091,39.4881886 175.488158,50.9955326 C176.728225,62.5028766 178.147088,67.0824405 180.179661,67.0824405 C182.212234,67.0824405 184.009386,62.5028766 185.157944,50.9955326 C186.306501,39.4881886 188.053694,22.6193452 180.179661,22.6193452 Z" id="L"></path>
                    <path d="M392.449427,13.5104167 C412.903392,13.5104167 407.031458,30.333785 407.031458,71.6544643 C407.031458,74.0699083 406.999671,76.5155937 406.93876,78.9797312 C407.803598,79.0492508 408.728714,79.1544874 409.726858,79.3030065 C420.848333,80.957829 434.356441,83.4248077 424.824801,89.5983298 C419.664651,92.940493 413.783412,93.9503453 406.296966,93.1027047 C403.998727,128.516795 396.835963,163.145833 392.449427,163.145833 C387.169518,163.145833 382.889306,129.648804 382.889306,88.328125 L382.885349,87.1051536 C369.804443,82.6419838 363.66608,77.7966127 364.470261,72.5690402 C369.458506,75.7854848 375.54373,78.0242883 382.725931,79.2854507 C381.447106,42.2276287 373.51093,13.5104167 392.449427,13.5104167 Z M391.467272,28.0464286 C383.593239,28.0464286 385.535701,44.915272 386.775768,56.422616 C388.015836,67.9299599 389.434699,72.5095238 391.467272,72.5095238 C393.499845,72.5095238 395.296997,67.9299599 396.445554,56.422616 C397.594112,44.915272 399.341304,28.0464286 391.467272,28.0464286 Z" id="T"></path>
                    <path d="M139.69279,6.3125 C159.942216,6.3125 161.116687,12.5066249 161.138152,52.7239212 L161.138113,53.3148088 C160.796145,47.8541539 160.101535,42.8553545 158.89529,38.7598206 C155.868278,28.4822794 146.274594,28.0464286 140.793303,28.0464286 C130.653641,28.0464286 136.632756,48.4725037 141.865674,69.9999272 C143.519918,69.9776006 145.394877,69.8359675 147.608675,69.506565 C155.597454,68.3178727 162.296368,65.9796359 167.705418,62.4918546 C168.517574,67.7712719 162.248798,72.6608692 148.899089,77.1606466 C147.17917,77.7403785 145.518509,78.2834804 143.913574,78.7880561 C145.266083,84.9343263 146.368131,90.9565023 146.825337,96.4001622 C148.435677,115.573422 147.375338,130.469771 147.949168,137.514478 C144.641391,148.703521 141.517213,155.947917 139.69279,155.947917 C134.466236,155.947917 130.219277,123.124471 130.133976,82.3804752 C120.55825,84.1636197 113.450744,83.47195 107.350878,79.5211442 C97.8192377,73.3476221 111.327346,70.8806434 122.448821,69.2258209 C125.448571,68.7794723 127.788732,68.7240518 129.842029,68.8461566 C128.24798,33.3695863 121.309853,6.3125 139.69279,6.3125 Z" id="F"></path>
                    <g id="K" transform="translate(324.672875, 86.373750) scale(-1, 1) rotate(7.000000) translate(-324.672875, -86.373750) translate(282.672875, 5.373750)">
                        <g id="e-copy-2" transform="translate(42.751728, 112.547102) rotate(12.000000) translate(-42.751728, -112.547102) translate(10.251728, 69.047102)">
                            <path d="M43.0806003,29.7276923 C51.0182662,34.1878608 56.3848681,42.7173534 56.3848681,52.5065826 C56.3848681,66.9097908 44.7671492,78.5858981 30.4359668,78.5858981 C21.3286491,78.5858981 13.3171558,73.8705366 8.6866802,66.7364921 C12.4284803,68.8373062 16.7405807,70.0353029 21.3310891,70.0353029 C35.6622716,70.0353029 47.2799904,58.3591956 47.2799904,43.9559874 C47.2799904,38.7708324 45.7743341,33.9391097 43.1784583,29.8783442 Z" id="Combined-Shape-Copy-2" transform="translate(32.535450, 54.157088) scale(-1, 1) rotate(24.000000) translate(-32.535450, -54.157088) "></path>
                            <path d="M8.30433995,19.0218175 C17.0748169,3.96050332 32.0446106,-3.74969001 41.7406529,1.80071289 C51.4366053,7.35127138 52.1871292,24.060572 43.4172479,39.1222301 C34.646771,54.1835443 19.6769772,61.8937376 9.98093501,56.3433347 C0.284982603,50.7927762 -0.46554135,34.0834756 8.30433995,19.0218175 Z M14.2833735,27.4287188 C10.7922279,35.2037132 12.1077339,43.336685 17.2217354,45.5942998 C22.3357645,47.8518528 29.3117155,43.3791477 32.8030825,35.6042518 C36.2942281,27.8292573 34.9787221,19.6962856 29.8647205,17.4386708 C24.7506915,15.1811178 17.7747405,19.6538229 14.2833735,27.4287188 Z" id="Combined-Shape"></path>
                        </g>
                        <path d="M12.4582766,0 C32.912242,0 27.0403072,16.8233683 27.0403072,58.1440476 C27.0403072,99.4647269 17.7381859,149.635417 12.4582766,149.635417 C7.17836727,149.635417 2.89815506,116.138388 2.89815506,74.8177083 C2.89815506,33.497029 -7.99568879,0 12.4582766,0 Z M11.4761214,14.5360119 C3.60208897,14.5360119 5.54455086,31.4048553 6.78461802,42.9121993 C8.02468519,54.4195433 9.44354843,58.9991071 11.4761214,58.9991071 C13.5086944,58.9991071 15.3058466,54.4195433 16.4544038,42.9121993 C17.6029611,31.4048553 19.3501539,14.5360119 11.4761214,14.5360119 Z" id="L"></path>
                    </g>
                </g>
            </g>
        </g>
    </g>
</svg>