<?xml version="1.0" encoding="UTF-8"?>
<svg width="460px" height="460px" viewBox="0 0 460 460" version="1.1" xmlns="http://www.w3.org/2000/svg" xmlns:xlink="http://www.w3.org/1999/xlink">
    <!-- Generator: Sketch 57.1 (83088) - https://sketch.com -->
    <title>peace purple</title>
    <desc>Created with Sketch.</desc>
    <g id="peace-purple" stroke="none" stroke-width="1" fill="none" fill-rule="evenodd">
        <g id="Group">
            <circle id="Oval" fill="#756590" cx="230" cy="230" r="230"></circle>
            <path d="M188,396.641129 C279.955411,396.641129 394.511719,302.954663 394.511719,214.865245 C394.511719,156.980709 328.921705,166.046865 266.921422,151.996094 C234.568892,144.664224 212.81955,102.308594 181.289063,102.308594 C89.3336517,102.308594 34.2148438,177.393004 34.2148438,265.482422 C34.2148438,353.571839 96.0445892,396.641129 188,396.641129 Z" id="Oval" fill="#67325B"></path>
            <path d="M185.00743,389.808594 C87.2809189,389.808594 28.7148438,345.686161 28.7148438,265.427893 C28.7148438,223.583539 42.7929159,184.973738 68.4086991,156.831181 C95.2972037,127.29036 133.31544,110.808594 178.208892,110.808594 C191.48759,110.808594 202.430642,116.589055 219.937638,130.475265 C220.773473,131.138234 221.645031,131.834062 222.694814,132.675655 C223.31173,133.170227 225.494286,134.923062 225.454962,134.891499 C243.40805,149.301764 252.731314,155.144283 265.062414,157.749731 C268.218154,158.41651 271.468193,159.046133 274.843965,159.648119 C285.245284,161.502939 290.261682,162.192502 312.91861,165.084842 C343.783473,169.02499 357.895078,171.886114 370.49644,178.048123 C386.608531,185.926863 394.714844,198.338907 394.714844,217.619468 C394.714844,257.340751 368.123628,300.445609 324.856868,335.054981 C282.623873,368.837437 230.216763,389.808594 185.00743,389.808594 Z" id="oval-outline" stroke="#B0214F"></path>
            <path d="M189.792586,395.375 C92.1286505,395.375 33.625,351.299597 33.625,271.1193 C33.625,229.305241 47.6920779,190.725593 73.2862961,162.606729 C100.150892,133.092175 138.13547,116.625 182.994048,116.625 C196.235838,116.625 207.158991,122.394949 224.645115,136.264605 C225.480758,136.927421 226.352156,137.623121 227.401783,138.46459 C228.01865,138.959121 230.201159,140.71192 230.161873,140.680387 C248.130141,155.102836 257.464885,160.952549 269.82173,163.563437 C272.978807,164.230499 276.23014,164.860372 279.607176,165.462584 C290.011382,167.317919 295.028608,168.007596 317.687937,170.900242 C348.538376,174.838548 362.642301,177.698115 375.226685,183.851823 C391.29675,191.710012 399.375,204.079088 399.375,223.310874 C399.375,262.988478 372.803761,306.060954 329.563943,340.648775 C287.351831,374.414527 234.971417,395.375 189.792586,395.375 Z" id="oval-outline" stroke="#B0214F" stroke-width="0.75"></path>
            <path d="M194.792586,390.625 C97.0034998,390.625 38.375,346.455538 38.375,266.1193 C38.375,224.244648 52.4640664,185.604695 78.1014146,157.438447 C105.013828,127.871358 143.065722,111.375 187.994048,111.375 C201.309654,111.375 212.272606,117.165973 229.800473,131.068738 C230.6365,131.731859 231.508219,132.427815 232.558157,133.269533 C233.175124,133.764145 235.357725,135.517017 235.318364,135.485423 C253.256271,149.883503 262.568055,155.718829 274.873411,158.318838 C278.027814,158.985334 281.276558,159.614706 284.651065,160.216467 C295.049499,162.070772 300.065068,162.760221 322.719595,165.652254 C353.598883,169.594243 367.718168,172.456925 380.336507,178.627236 C396.490626,186.526527 404.625,198.981539 404.625,218.310874 C404.625,258.075837 378.013808,301.213077 334.720105,335.844001 C292.466229,369.643161 240.032421,390.625 194.792586,390.625 Z" id="oval-outline" stroke="#B0214F" stroke-width="1.25" transform="translate(221.500000, 251.000000) rotate(-6.000000) translate(-221.500000, -251.000000) "></path>
            <path d="M382.398983,176.022446 C388.062986,175.586507 393.0559,181.552978 393.550981,189.349121 C393.665907,191.158886 393.981271,193.917963 394.32697,197.093545 C395.302912,194.117365 396.163243,191.536435 396.640875,189.816143 C398.715918,182.342449 404.799737,177.76567 410.229464,179.59362 C415.659192,181.42157 418.378701,188.962042 416.303658,196.435736 C414.544421,202.771992 401.265733,218.653698 393.955857,222.227155 C393.585057,222.685193 393.135607,222.952764 392.596742,222.994262 C392.362431,223.012301 392.114885,222.987315 391.855565,222.92228 C391.424281,222.97548 391.036179,222.949336 390.697405,222.835286 C390.097008,222.633159 389.67669,222.163388 389.406771,221.477529 C383.014736,216.033043 373.456551,197.490635 373.039698,190.92849 C372.544777,183.132336 376.735006,176.458762 382.398983,176.022446 Z" id="Combined-Shape" fill="#D46666"></path>
            <g id="peace" transform="translate(44.000000, 64.000000)">
                <g id="peace-shadow" transform="translate(0.000000, 7.000000)">
                    <g id="e-copy" transform="translate(258.903394, 18.348571)" fill="#2A1E1E">
                        <path d="M87.7098044,26.9378555 C96.1317754,31.9752681 101.825791,41.6084867 101.825791,52.6644351 C101.825791,68.9315879 89.499009,82.1187208 74.2931534,82.1187208 C64.6298322,82.1187208 56.1292546,76.792962 51.2162047,68.7354672 C55.1871324,71.1086985 59.7621723,72.461578 64.632579,72.461578 C79.8384346,72.461578 92.1652161,59.2744451 92.1652161,43.0072923 C92.1652161,37.1511173 90.5676652,31.6941128 87.8133557,27.1078364 Z" id="Combined-Shape-Copy-2" transform="translate(76.520998, 54.528589) scale(-1, 1) rotate(24.000000) translate(-76.520998, -54.528589) "></path>
                        <path d="M37.9047114,26.8848379 C44.6408447,31.888448 49.2078653,41.5868379 49.2078653,52.7306647 C49.2078653,68.9978175 39.4761957,82.1849504 27.4715728,82.1849504 C19.8795966,82.1849504 13.1967026,76.9106724 9.30950469,68.9186179 C12.4065026,71.2195968 15.9620654,72.5278075 19.7431133,72.5278075 C31.7477361,72.5278075 41.4794057,59.3406746 41.4794057,43.0735218 C41.4794057,37.2173468 40.2181814,31.7603424 38.0437265,27.174066 Z" id="Combined-Shape-Copy" transform="translate(29.258502, 54.535266) rotate(23.000000) translate(-29.258502, -54.535266) "></path>
                        <path d="M50.8114936,21.4836587 C60.1169418,4.47303904 76.000385,-4.23494401 86.2881568,2.03383419 C96.5759286,8.30261238 97.3722592,27.1742931 88.0668109,44.1849127 C78.7613627,61.1955324 62.8779195,69.9035154 52.5901477,63.6347372 C42.3023759,57.365959 41.5060453,38.4942784 50.8114936,21.4836587 Z M57.1552461,30.9783733 C53.4509084,39.7594879 54.8467036,48.9449619 60.2728419,51.4947037 C65.6989802,54.0444455 73.1006934,48.9929198 76.8050311,40.2118052 C80.5093688,31.4306906 79.1135737,22.2452167 73.6874354,19.6954749 C68.2612971,17.1457331 60.8595838,22.1972588 57.1552461,30.9783733 Z" id="Combined-Shape"></path>
                    </g>
                    <g id="c" transform="translate(244.412533, 10.622857)" fill="#2A1E1E">
                        <path d="M37.2689,5.25592164 C53.2750638,5.25592164 66.2506232,23.6599871 66.2506232,46.3625524 C66.2506232,69.0651176 53.2750638,87.4691831 37.2689,87.4691831 C22.9203237,87.4691831 11.0071589,72.6795677 8.69360209,53.261775 C12.5883088,60.8499336 19.6476396,65.9205442 27.7098733,65.9205442 C39.9812656,65.9205442 49.9291945,54.1732684 49.9291945,39.6822693 C49.9291945,25.1912702 39.9812656,13.4439943 27.7098733,13.4439943 C23.9902333,13.4439943 20.4840697,14.5233171 17.403722,16.4312158 C22.5912219,9.50229891 29.5804347,5.25592164 37.2689,5.25592164 Z" id="Combined-Shape" transform="translate(37.472053, 46.362552) scale(-1, 1) rotate(-12.000000) translate(-37.472053, -46.362552) "></path>
                    </g>
                    <g id="a" transform="translate(169.060052, 2.897143)">
                        <path d="M80.7626754,28.0053162 C87.4988086,33.0089263 92.0658292,42.7073162 92.0658292,53.851143 C92.0658292,70.1182958 82.3341596,83.3054287 70.3295368,83.3054287 C62.7375606,83.3054287 56.0546665,78.0311507 52.1674686,70.0390963 C55.2644666,72.3400752 58.8200294,73.6482859 62.6010772,73.6482859 C74.6057001,73.6482859 84.3373697,60.461153 84.3373697,44.1940002 C84.3373697,38.3378251 83.0761453,32.8808207 80.9016904,28.2945443 Z" id="Combined-Shape" fill="#2A1E1E" transform="translate(72.116466, 55.655744) scale(-1, 1) translate(-72.116466, -55.655744) "></path>
                        <path d="M66.0960857,51.1841766 C68.2526312,51.1841766 70.1599627,46.0113242 71.3799954,33.0141717 C72.6000282,20.0170193 74.4558713,0.964228819 66.1015786,0.965142356 C57.747286,0.966055893 59.8061403,20.0184183 61.1204212,33.0152936 C62.4347021,46.0121689 63.9395402,51.1841766 66.0960857,51.1841766 Z" id="Oval-Copy-4" fill="#3A6067" transform="translate(66.175995, 26.074659) rotate(19.000000) translate(-66.175995, -26.074659) "></path>
                        <path d="M8.1122935,27.8202877 C19.7441038,6.55701308 39.5984078,-4.32796573 52.4581225,3.50800702 C65.3178373,11.3439798 66.3132505,34.9335806 54.6814402,56.1968552 C43.0496299,77.4601298 23.1953259,88.3451086 10.3356112,80.5091358 C-2.52410359,72.6731631 -3.51951681,49.0835622 8.1122935,27.8202877 Z M16.0419842,39.688681 C11.4115621,50.6650742 13.156306,62.1469166 19.9389789,65.3340939 C26.7216517,68.5212711 35.9737933,62.206864 40.6042154,51.2304708 C45.2346375,40.2540776 43.4898936,28.7722351 36.7072207,25.5850579 C29.9245479,22.3978806 20.6724063,28.7122877 16.0419842,39.688681 Z" id="Combined-Shape-Copy-4" fill="#2A1E1E"></path>
                    </g>
                    <g id="e" transform="translate(132.591322, 54.166665) rotate(-6.000000) translate(-132.591322, -54.166665) translate(83.091322, 8.666665)" fill="#2A1E1E">
                        <path d="M75.1510577,26.9378555 C83.5730287,31.9752681 89.2670438,41.6084867 89.2670438,52.6644351 C89.2670438,68.9315879 76.9402623,82.1187208 61.7344067,82.1187208 C52.0710855,82.1187208 43.5705078,76.792962 38.657458,68.7354672 C42.6283856,71.1086985 47.2034256,72.461578 52.0738323,72.461578 C67.2796879,72.461578 79.6064694,59.2744451 79.6064694,43.0072923 C79.6064694,37.1511173 78.0089185,31.6941128 75.254609,27.1078364 Z" id="Combined-Shape-Copy-2" transform="translate(63.962251, 54.528589) scale(-1, 1) rotate(24.000000) translate(-63.962251, -54.528589) "></path>
                        <path d="M43.0859524,27.1676041 C49.8220856,32.1712142 54.3891062,41.8696042 54.3891062,53.013431 C54.3891062,69.2805838 44.6574366,82.4677167 32.6528138,82.4677167 C25.0608376,82.4677167 18.3779436,77.1934387 14.4907457,69.2013842 C17.5877436,71.5023631 21.1433064,72.8105738 24.9243543,72.8105738 C36.9289771,72.8105738 46.6606467,59.6234409 46.6606467,43.3562881 C46.6606467,37.5001131 45.3994223,32.0431087 43.2249674,27.4568323 Z" id="Combined-Shape-Copy" transform="translate(34.439743, 54.818032) rotate(56.000000) translate(-34.439743, -54.818032) "></path>
                        <path d="M38.2527468,21.4836587 C47.5581951,4.47303904 63.4416382,-4.23494401 73.7294101,2.03383419 C84.0171819,8.30261238 84.8135124,27.1742931 75.5080642,44.1849127 C66.2026159,61.1955324 50.3191728,69.9035154 40.031401,63.6347372 C29.7436292,57.365959 28.9472986,38.4942784 38.2527468,21.4836587 Z M44.5964994,30.9783733 C40.8921617,39.7594879 42.2879569,48.9449619 47.7140951,51.4947037 C53.1402334,54.0444455 60.5419467,48.9929198 64.2462844,40.2118052 C67.9506221,31.4306906 66.5548269,22.2452167 61.1286886,19.6954749 C55.7025503,17.1457331 48.3008371,22.1972588 44.5964994,30.9783733 Z" id="Combined-Shape"></path>
                    </g>
                    <g id="p" fill="#2A1E1E">
                        <path d="M38.3361344,0 C60.0384638,0 53.8081481,19.0005101 53.8081481,65.6685714 C53.8081481,112.336633 43.9382917,169 38.3361344,169 C32.7339771,169 28.1925312,131.168061 28.1925312,84.5 C28.1925312,37.8319386 16.6338049,0 38.3361344,0 Z M37.2940354,16.4171429 C28.9394282,16.4171429 31.0004441,35.469013 32.3161962,48.4655427 C33.6319482,61.4620724 35.1374087,66.6342857 37.2940354,66.6342857 C39.4506622,66.6342857 41.3574997,61.4620724 42.5761567,48.4655427 C43.7948137,35.469013 45.6486426,16.4171429 37.2940354,16.4171429 Z" id="Combined-Shape"></path>
                        <path d="M75.3524804,21.2457143 C91.3586442,21.2457143 104.334204,41.5668699 104.334204,66.6342857 C104.334204,91.7017015 91.3586442,112.022857 75.3524804,112.022857 C59.3463167,112.022857 46.3707572,91.7017015 46.3707572,66.6342857 C46.3707572,41.5668699 59.3463167,21.2457143 75.3524804,21.2457143 Z M70.0391645,37.6628571 C60.1686968,37.6628571 52.1671018,50.6338075 52.1671018,66.6342857 C52.1671018,82.6347639 60.1686968,95.6057143 70.0391645,95.6057143 C79.9096321,95.6057143 87.9112272,82.6347639 87.9112272,66.6342857 C87.9112272,50.6338075 79.9096321,37.6628571 70.0391645,37.6628571 Z" id="Combined-Shape"></path>
                        <path d="M28.5951376,66.6338876 C35.3312708,71.6374977 39.8982914,81.3358876 39.8982914,92.4797144 C39.8982914,108.746867 30.1666218,121.934 18.161999,121.934 C10.5700228,121.934 3.88712875,116.659722 -6.91457226e-05,108.667668 C3.09692881,110.968647 6.6524916,112.276857 10.4335395,112.276857 C22.4381623,112.276857 32.1698319,99.0897244 32.1698319,82.8225716 C32.1698319,76.9663966 30.9086075,71.5093921 28.7341526,66.9231158 Z" id="Combined-Shape"></path>
                    </g>
                </g>
                <g transform="translate(4.000000, 0.000000)" fill="#D89D9D">
                    <g id="e-copy" transform="translate(258.903394, 18.348571)">
                        <path d="M87.7098044,26.9378555 C96.1317754,31.9752681 101.825791,41.6084867 101.825791,52.6644351 C101.825791,68.9315879 89.499009,82.1187208 74.2931534,82.1187208 C64.6298322,82.1187208 56.1292546,76.792962 51.2162047,68.7354672 C55.1871324,71.1086985 59.7621723,72.461578 64.632579,72.461578 C79.8384346,72.461578 92.1652161,59.2744451 92.1652161,43.0072923 C92.1652161,37.1511173 90.5676652,31.6941128 87.8133557,27.1078364 Z" id="Combined-Shape-Copy-2" transform="translate(76.520998, 54.528589) scale(-1, 1) rotate(24.000000) translate(-76.520998, -54.528589) "></path>
                        <path d="M37.9047114,26.8848379 C44.6408447,31.888448 49.2078653,41.5868379 49.2078653,52.7306647 C49.2078653,68.9978175 39.4761957,82.1849504 27.4715728,82.1849504 C19.8795966,82.1849504 13.1967026,76.9106724 9.30950469,68.9186179 C12.4065026,71.2195968 15.9620654,72.5278075 19.7431133,72.5278075 C31.7477361,72.5278075 41.4794057,59.3406746 41.4794057,43.0735218 C41.4794057,37.2173468 40.2181814,31.7603424 38.0437265,27.174066 Z" id="Combined-Shape-Copy" transform="translate(29.258502, 54.535266) rotate(23.000000) translate(-29.258502, -54.535266) "></path>
                        <path d="M50.8114936,21.4836587 C60.1169418,4.47303904 76.000385,-4.23494401 86.2881568,2.03383419 C96.5759286,8.30261238 97.3722592,27.1742931 88.0668109,44.1849127 C78.7613627,61.1955324 62.8779195,69.9035154 52.5901477,63.6347372 C42.3023759,57.365959 41.5060453,38.4942784 50.8114936,21.4836587 Z M57.1552461,30.9783733 C53.4509084,39.7594879 54.8467036,48.9449619 60.2728419,51.4947037 C65.6989802,54.0444455 73.1006934,48.9929198 76.8050311,40.2118052 C80.5093688,31.4306906 79.1135737,22.2452167 73.6874354,19.6954749 C68.2612971,17.1457331 60.8595838,22.1972588 57.1552461,30.9783733 Z" id="Combined-Shape"></path>
                    </g>
                    <g id="c" transform="translate(244.412533, 10.622857)">
                        <path d="M37.2689,5.25592164 C53.2750638,5.25592164 66.2506232,23.6599871 66.2506232,46.3625524 C66.2506232,69.0651176 53.2750638,87.4691831 37.2689,87.4691831 C22.9203237,87.4691831 11.0071589,72.6795677 8.69360209,53.261775 C12.5883088,60.8499336 19.6476396,65.9205442 27.7098733,65.9205442 C39.9812656,65.9205442 49.9291945,54.1732684 49.9291945,39.6822693 C49.9291945,25.1912702 39.9812656,13.4439943 27.7098733,13.4439943 C23.9902333,13.4439943 20.4840697,14.5233171 17.403722,16.4312158 C22.5912219,9.50229891 29.5804347,5.25592164 37.2689,5.25592164 Z" id="Combined-Shape" transform="translate(37.472053, 46.362552) scale(-1, 1) rotate(-12.000000) translate(-37.472053, -46.362552) "></path>
                    </g>
                    <g id="a" transform="translate(169.060052, 2.897143)">
                        <path d="M80.7626754,28.0053162 C87.4988086,33.0089263 92.0658292,42.7073162 92.0658292,53.851143 C92.0658292,70.1182958 82.3341596,83.3054287 70.3295368,83.3054287 C62.7375606,83.3054287 56.0546665,78.0311507 52.1674686,70.0390963 C55.2644666,72.3400752 58.8200294,73.6482859 62.6010772,73.6482859 C74.6057001,73.6482859 84.3373697,60.461153 84.3373697,44.1940002 C84.3373697,38.3378251 83.0761453,32.8808207 80.9016904,28.2945443 Z" id="Combined-Shape" transform="translate(72.116466, 55.655744) scale(-1, 1) translate(-72.116466, -55.655744) "></path>
                        <path d="M66.0960857,51.1841766 C68.2526312,51.1841766 70.1599627,46.0113242 71.3799954,33.0141717 C72.6000282,20.0170193 74.4558713,0.964228819 66.1015786,0.965142356 C57.747286,0.966055893 59.8061403,20.0184183 61.1204212,33.0152936 C62.4347021,46.0121689 63.9395402,51.1841766 66.0960857,51.1841766 Z" id="Oval-Copy-4" transform="translate(66.175995, 26.074659) rotate(19.000000) translate(-66.175995, -26.074659) "></path>
                        <path d="M8.1122935,27.8202877 C19.7441038,6.55701308 39.5984078,-4.32796573 52.4581225,3.50800702 C65.3178373,11.3439798 66.3132505,34.9335806 54.6814402,56.1968552 C43.0496299,77.4601298 23.1953259,88.3451086 10.3356112,80.5091358 C-2.52410359,72.6731631 -3.51951681,49.0835622 8.1122935,27.8202877 Z M16.0419842,39.688681 C11.4115621,50.6650742 13.156306,62.1469166 19.9389789,65.3340939 C26.7216517,68.5212711 35.9737933,62.206864 40.6042154,51.2304708 C45.2346375,40.2540776 43.4898936,28.7722351 36.7072207,25.5850579 C29.9245479,22.3978806 20.6724063,28.7122877 16.0419842,39.688681 Z" id="Combined-Shape-Copy-4"></path>
                    </g>
                    <g id="e" transform="translate(132.591322, 54.166665) rotate(-6.000000) translate(-132.591322, -54.166665) translate(83.091322, 8.666665)">
                        <path d="M75.1510577,26.9378555 C83.5730287,31.9752681 89.2670438,41.6084867 89.2670438,52.6644351 C89.2670438,68.9315879 76.9402623,82.1187208 61.7344067,82.1187208 C52.0710855,82.1187208 43.5705078,76.792962 38.657458,68.7354672 C42.6283856,71.1086985 47.2034256,72.461578 52.0738323,72.461578 C67.2796879,72.461578 79.6064694,59.2744451 79.6064694,43.0072923 C79.6064694,37.1511173 78.0089185,31.6941128 75.254609,27.1078364 Z" id="Combined-Shape-Copy-2" transform="translate(63.962251, 54.528589) scale(-1, 1) rotate(24.000000) translate(-63.962251, -54.528589) "></path>
                        <path d="M43.0859524,27.1676041 C49.8220856,32.1712142 54.3891062,41.8696042 54.3891062,53.013431 C54.3891062,69.2805838 44.6574366,82.4677167 32.6528138,82.4677167 C25.0608376,82.4677167 18.3779436,77.1934387 14.4907457,69.2013842 C17.5877436,71.5023631 21.1433064,72.8105738 24.9243543,72.8105738 C36.9289771,72.8105738 46.6606467,59.6234409 46.6606467,43.3562881 C46.6606467,37.5001131 45.3994223,32.0431087 43.2249674,27.4568323 Z" id="Combined-Shape-Copy" transform="translate(34.439743, 54.818032) rotate(56.000000) translate(-34.439743, -54.818032) "></path>
                        <path d="M38.2527468,21.4836587 C47.5581951,4.47303904 63.4416382,-4.23494401 73.7294101,2.03383419 C84.0171819,8.30261238 84.8135124,27.1742931 75.5080642,44.1849127 C66.2026159,61.1955324 50.3191728,69.9035154 40.031401,63.6347372 C29.7436292,57.365959 28.9472986,38.4942784 38.2527468,21.4836587 Z M44.5964994,30.9783733 C40.8921617,39.7594879 42.2879569,48.9449619 47.7140951,51.4947037 C53.1402334,54.0444455 60.5419467,48.9929198 64.2462844,40.2118052 C67.9506221,31.4306906 66.5548269,22.2452167 61.1286886,19.6954749 C55.7025503,17.1457331 48.3008371,22.1972588 44.5964994,30.9783733 Z" id="Combined-Shape"></path>
                    </g>
                    <g id="p">
                        <path d="M38.3361344,0 C60.0384638,0 53.8081481,19.0005101 53.8081481,65.6685714 C53.8081481,112.336633 43.9382917,169 38.3361344,169 C32.7339771,169 28.1925312,131.168061 28.1925312,84.5 C28.1925312,37.8319386 16.6338049,0 38.3361344,0 Z M37.2940354,16.4171429 C28.9394282,16.4171429 31.0004441,35.469013 32.3161962,48.4655427 C33.6319482,61.4620724 35.1374087,66.6342857 37.2940354,66.6342857 C39.4506622,66.6342857 41.3574997,61.4620724 42.5761567,48.4655427 C43.7948137,35.469013 45.6486426,16.4171429 37.2940354,16.4171429 Z" id="Combined-Shape"></path>
                        <path d="M75.3524804,21.2457143 C91.3586442,21.2457143 104.334204,41.5668699 104.334204,66.6342857 C104.334204,91.7017015 91.3586442,112.022857 75.3524804,112.022857 C59.3463167,112.022857 46.3707572,91.7017015 46.3707572,66.6342857 C46.3707572,41.5668699 59.3463167,21.2457143 75.3524804,21.2457143 Z M70.0391645,37.6628571 C60.1686968,37.6628571 52.1671018,50.6338075 52.1671018,66.6342857 C52.1671018,82.6347639 60.1686968,95.6057143 70.0391645,95.6057143 C79.9096321,95.6057143 87.9112272,82.6347639 87.9112272,66.6342857 C87.9112272,50.6338075 79.9096321,37.6628571 70.0391645,37.6628571 Z" id="Combined-Shape"></path>
                        <path d="M28.5951376,66.6338876 C35.3312708,71.6374977 39.8982914,81.3358876 39.8982914,92.4797144 C39.8982914,108.746867 30.1666218,121.934 18.161999,121.934 C10.5700228,121.934 3.88712875,116.659722 -6.91457226e-05,108.667668 C3.09692881,110.968647 6.6524916,112.276857 10.4335395,112.276857 C22.4381623,112.276857 32.1698319,99.0897244 32.1698319,82.8225716 C32.1698319,76.9663966 30.9086075,71.5093921 28.7341526,66.9231158 Z" id="Combined-Shape"></path>
                    </g>
                </g>
            </g>
            <g id="person" transform="translate(112.493186, 142.142901)">
                <path d="M131.044878,14.4083506 C137.517318,4.85911862 164.448011,9.77564097 169.506814,26.3476524 C171.312036,32.2613376 176.996682,22.6601947 187.506814,22.6601947 C199.922891,24.8451356 209.924916,27.3606059 216.02252,37.8570995 C225.335941,32.4263568 242.645606,38.855436 238.011573,60.0351733 C244.235964,63.7049786 240.673031,72.4061395 238.011573,76.3142794 C242.123181,76.3142794 250.569467,81.6190445 250.569467,91.6677749 C250.569467,96.8357449 244.989035,113.857099 242.371187,113.857099 C244.501059,117.492741 239.585127,129.008599 238.011573,132.129953 C232.506814,143.049374 225.335941,141.114088 225.335941,165.294599 C225.335941,189.475111 200.650808,202.255678 175.815843,193.491865 C169.506814,214.848129 137.566997,222.857099 104.006814,222.857099 C75.506814,222.857099 58.4560327,206.466474 58.4560327,193.491865 C38.7517114,197.457858 23.9385271,186.297348 23.9385271,168.857099 C23.9385271,151.416851 -3.71144288,150.762163 1.28222481,133.931802 C1.28222481,124.944165 4.77846639,124.589843 9.83444094,119.779599 C-1.67075236,106.589843 -7.25430561,76.953142 16.9930312,60.0351733 C16.9930312,38.855436 27.8770527,20.8034636 43.1665427,14.4083506 C58.4560327,8.01323758 55.8942061,-1.73973898 79.6090498,5.49854227 C87.8990889,-2.59423116 125.495402,-3.39048699 131.044878,14.4083506 Z" id="hair" fill="#000000"></path>
                <g id="skin" transform="translate(30.506814, 37.857099)" fill="#824836">
                    <path d="M101,127.4375 C119.699877,127.4375 157,100.350727 157,66.9375 C157,47.1710288 148.050742,34.0149822 134.337566,26.5657426 C132.698163,25.67519 141.0188,0.764197046 139,1 C134.580878,1.51616897 130.503829,19.5101176 123.921422,26.5657426 C116.145093,34.9011224 101.106949,38.4571799 95.4505239,38.4571799 C88.0803056,38.4571799 78.558614,41.6080861 73.5,38.1409747 C69.0957461,35.1223536 56.7439369,41.3325089 52.2538478,44.1991378 C40.2597623,51.8565787 45,48.4192187 45,66.9375 C45,100.350727 82.3001233,127.4375 101,127.4375 Z" id="Oval"></path>
                    <path d="M85,121 L118,121 C115.705709,130.997396 114.518509,141.888021 114.438399,153.671875 C114.35829,165.455729 122.54549,177.654948 139,190.269531 L70,190.269531 C83.3333333,179.540365 89.6328127,167.341146 88.8984381,153.671875 C88.1640635,140.002604 86.8645841,129.111979 85,121 Z" id="Rectangle"></path>
                    <path d="M101,243 C156.78076,243 202,230.016258 202,214 C202,207.251473 193.971783,201.041339 180.507998,196.114021 C174.451506,193.897537 173.96299,196.515238 157.799929,196.114021 C141.636868,195.712804 141.636868,187.272555 131.679449,186.362084 C122.004229,185.477416 111.69629,185 101,185 C94.1183411,185 87.3974295,185.197614 80.902342,185.574156 C70.1049976,186.200115 64.5518521,199.266178 47.4768748,196.114021 C30.4018974,192.961864 30.4018974,192.961864 22.6083538,195.712804 C8.47316742,200.702196 0,207.066982 0,214 C0,230.016258 45.2192403,243 101,243 Z" id="Oval"></path>
                </g>
                <path d="M160.506814,117.50456 C168.2388,117.50456 174.506814,123.589086 174.506814,115.857099 C174.506814,108.125113 168.2388,101.857099 160.506814,101.857099 C152.774827,101.857099 146.506814,108.125113 146.506814,115.857099 C146.506814,123.589086 152.774827,117.50456 160.506814,117.50456 Z" id="cheek-right" fill="#E29191" opacity="0.285592831"></path>
                <path d="M100.506814,117.50456 C108.2388,117.50456 114.506814,123.589086 114.506814,115.857099 C114.506814,108.125113 108.2388,101.857099 100.506814,101.857099 C92.7748275,101.857099 86.506814,108.125113 86.506814,115.857099 C86.506814,123.589086 92.7748275,117.50456 100.506814,117.50456 Z" id="cheek-left" fill="#E29191" opacity="0.285592831"></path>
                <path d="M136.582371,133.121284 C140.588257,133.928692 143.636846,138.034133 143.636846,142.977263 C143.636846,148.500111 139.831266,152.977263 135.136846,152.977263 C133.810318,152.977263 132.554763,152.619768 131.435993,151.982202 C134.601552,149.654408 136.844459,143.856614 136.844459,137.072732 C136.844459,135.792072 136.764527,134.546554 136.613541,133.35289 Z" id="mouth" fill="#000000" transform="translate(137.536419, 143.049374) rotate(52.000000) translate(-137.536419, -143.049374) "></path>
                <path d="M102.548035,84.1733048 C105.970141,86.8156154 108.250529,91.5470324 108.250529,96.944216 C108.250529,105.228487 102.877946,111.944216 96.2505294,111.944216 L96.2845894,111.943827 C101.58539,110.181396 105.532095,103.440213 105.532095,95.3931433 C105.532095,91.1254884 104.422058,87.2251231 102.588698,84.2398946 Z" id="eye-left" fill="#000000" transform="translate(102.250529, 98.058760) rotate(74.000000) translate(-102.250529, -98.058760) "></path>
                <path d="M157.804319,83.8570995 C161.226425,86.4994101 163.506814,91.2308271 163.506814,96.6280107 C163.506814,104.912282 158.134231,111.628011 151.506814,111.628011 L151.540874,111.627622 C156.841675,109.865191 160.78838,103.124008 160.78838,95.076938 C160.78838,90.8092832 159.678342,86.9089178 157.844982,83.9236894 Z" id="eye-right" fill="#000000" transform="translate(157.506814, 97.742555) scale(-1, 1) rotate(74.000000) translate(-157.506814, -97.742555) "></path>
            </g>
            <path d="M348.887433,240.105217 C352.491793,239.808279 355.669103,243.87056 355.984155,249.178577 C356.057287,250.41071 356.257961,252.289135 356.477941,254.451131 C357.099094,252.424809 357.646525,250.667734 357.950453,249.496549 C359.270935,244.408073 363.142458,241.291965 366.597742,242.536528 C370.053025,243.78109 371.783623,248.915033 370.46314,254.00351 C369.343637,258.317512 360.893732,269.130407 356.241957,271.563559 C356.006525,271.875105 355.720239,272.057687 355.376915,272.085979 C355.228164,272.09823 355.07103,272.081326 354.906437,272.03728 C354.630901,272.073145 354.383869,272.055353 354.168242,271.977686 C353.786825,271.840303 353.519612,271.521318 353.347812,271.055652 C349.280772,267.349484 343.196831,254.72229 342.931614,250.253885 C342.616562,244.945868 345.283073,240.402155 348.887433,240.105217 Z" id="small-heart" fill="#C85959" transform="translate(356.906293, 256.089890) rotate(-20.000000) translate(-356.906293, -256.089890) "></path>
        </g>
    </g>
</svg>